<svg xmlns="http://www.w3.org/2000/svg" viewBox="0 0 920 480" font-family="'Segoe UI', Arial, sans-serif">
  <rect width="100%" height="100%" fill="white"/>

  <!-- Title -->
  <text x="460" y="30" text-anchor="middle" fill="#1a1a1a" font-size="26" font-weight="bold">Why j &lt; n-1-i? The Unsorted Region Shrinks</text>
  <text x="460" y="50" text-anchor="middle" fill="#555" font-size="13">Each pass locks the largest unsorted element at the end. No need to compare settled elements again.</text>

  <!-- Code box (left) -->
  <rect x="30" y="66" width="320" height="80" rx="8" fill="#1e1e2e" stroke="#45475a" stroke-width="1.5"/>
  <text x="50" y="88"  fill="#6c7086" font-size="12" font-family="Consolas, monospace">// n = 5 (indices 0..4)</text>
  <text x="50" y="108" fill="#cdd6f4" font-size="12" font-family="Consolas, monospace"><tspan fill="#cba6f7">for</tspan> (j = 0; j &lt; <tspan fill="#fab387">n-1-i</tspan>; ++j)</text>
  <text x="50" y="128" fill="#6c7086" font-size="12" font-family="Consolas, monospace">// i grows, range shrinks</text>

  <!-- Legend -->
  <rect x="380" y="70" width="20" height="16" rx="3" fill="#3498db" stroke="#2980b9" stroke-width="1"/>
  <text x="406" y="83" fill="#555" font-size="11">Unsorted (compared)</text>
  <rect x="380" y="94" width="20" height="16" rx="3" fill="#f39c12" stroke="#e67e22" stroke-width="1"/>
  <text x="406" y="107" fill="#555" font-size="11">Just settled this pass</text>
  <rect x="380" y="118" width="20" height="16" rx="3" fill="#2ecc71" stroke="#27ae60" stroke-width="1"/>
  <text x="406" y="131" fill="#555" font-size="11">Already settled (skip)</text>

  <!-- n-1-i table -->
  <rect x="620" y="66" width="270" height="80" rx="8" fill="#f4f6f7" stroke="#bdc3c7" stroke-width="1.5"/>
  <text x="755" y="86" text-anchor="middle" fill="#333" font-size="12" font-weight="bold">n-1-i controls the range</text>
  <text x="640" y="106" fill="#555" font-size="11">i=0: j goes 0..3 (4 compares)</text>
  <text x="640" y="122" fill="#555" font-size="11">i=1: j goes 0..2 (3 compares)</text>
  <text x="640" y="138" fill="#555" font-size="11">i=2: j goes 0..1 (2 compares)</text>
  <text x="820" y="106" fill="#888" font-size="11">n-1-0 = 4</text>
  <text x="820" y="122" fill="#888" font-size="11">n-1-1 = 3</text>
  <text x="820" y="138" fill="#888" font-size="11">n-1-2 = 2</text>

  <!-- Pass 0: i=0, compare 0..3, settle index 4 -->
  <text x="30" y="172" fill="#333" font-size="13" font-weight="bold">Pass i=0</text>
  <text x="130" y="172" fill="#888" font-size="12">j compares indices 0..3</text>

  <rect x="30" y="180" width="540" height="52" rx="6" fill="#eaf4fb" stroke="#5dade2" stroke-width="1.5"/>
  <!-- unsorted region bracket -->
  <text x="50" y="198" fill="#888" font-size="10">0</text>
  <text x="108" y="198" fill="#888" font-size="10">1</text>
  <text x="166" y="198" fill="#888" font-size="10">2</text>
  <text x="224" y="198" fill="#888" font-size="10">3</text>
  <text x="282" y="198" fill="#888" font-size="10">4</text>

  <rect x="40"  y="204" width="52" height="24" rx="4" fill="#3498db" stroke="#2980b9" stroke-width="1.5"/>
  <text x="66"  y="221" text-anchor="middle" fill="#fff" font-size="11">78</text>
  <rect x="98"  y="204" width="52" height="24" rx="4" fill="#3498db" stroke="#2980b9" stroke-width="1.5"/>
  <text x="124" y="221" text-anchor="middle" fill="#fff" font-size="11">62</text>
  <rect x="156" y="204" width="52" height="24" rx="4" fill="#3498db" stroke="#2980b9" stroke-width="1.5"/>
  <text x="182" y="221" text-anchor="middle" fill="#fff" font-size="11">88</text>
  <rect x="214" y="204" width="52" height="24" rx="4" fill="#3498db" stroke="#2980b9" stroke-width="1.5"/>
  <text x="240" y="221" text-anchor="middle" fill="#fff" font-size="11">55</text>
  <rect x="272" y="204" width="52" height="24" rx="4" fill="#f39c12" stroke="#e67e22" stroke-width="2"/>
  <text x="298" y="221" text-anchor="middle" fill="#fff" font-size="11" font-weight="bold">95</text>

  <text x="340" y="218" fill="#f39c12" font-size="12" font-weight="bold">95 settled at index 4</text>
  <text x="340" y="218" fill="#f39c12" font-size="12" font-weight="bold">95 settled at index 4</text>

  <!-- Pass 1: i=1, compare 0..2, settle index 3 -->
  <text x="30" y="256" fill="#333" font-size="13" font-weight="bold">Pass i=1</text>
  <text x="130" y="256" fill="#888" font-size="12">j compares indices 0..2</text>

  <rect x="30" y="264" width="540" height="52" rx="6" fill="#eaf4fb" stroke="#5dade2" stroke-width="1.5"/>
  <text x="50" y="282" fill="#888" font-size="10">0</text>
  <text x="108" y="282" fill="#888" font-size="10">1</text>
  <text x="166" y="282" fill="#888" font-size="10">2</text>
  <text x="224" y="282" fill="#888" font-size="10">3</text>
  <text x="282" y="282" fill="#888" font-size="10">4</text>

  <rect x="40"  y="288" width="52" height="24" rx="4" fill="#3498db" stroke="#2980b9" stroke-width="1.5"/>
  <text x="66"  y="305" text-anchor="middle" fill="#fff" font-size="11">62</text>
  <rect x="98"  y="288" width="52" height="24" rx="4" fill="#3498db" stroke="#2980b9" stroke-width="1.5"/>
  <text x="124" y="305" text-anchor="middle" fill="#fff" font-size="11">78</text>
  <rect x="156" y="288" width="52" height="24" rx="4" fill="#3498db" stroke="#2980b9" stroke-width="1.5"/>
  <text x="182" y="305" text-anchor="middle" fill="#fff" font-size="11">55</text>
  <rect x="214" y="288" width="52" height="24" rx="4" fill="#f39c12" stroke="#e67e22" stroke-width="2"/>
  <text x="240" y="305" text-anchor="middle" fill="#fff" font-size="11" font-weight="bold">88</text>
  <rect x="272" y="288" width="52" height="24" rx="4" fill="#2ecc71" stroke="#27ae60" stroke-width="1.5"/>
  <text x="298" y="305" text-anchor="middle" fill="#fff" font-size="11">95</text>

  <text x="340" y="302" fill="#f39c12" font-size="12" font-weight="bold">88 settled at index 3</text>
  <text x="340" y="302" fill="#f39c12" font-size="12" font-weight="bold">88 settled at index 3</text>

  <!-- Pass 2: i=2, compare 0..1, settle index 2 -->
  <text x="30" y="340" fill="#333" font-size="13" font-weight="bold">Pass i=2</text>
  <text x="130" y="340" fill="#888" font-size="12">j compares indices 0..1</text>

  <rect x="30" y="348" width="540" height="52" rx="6" fill="#eaf4fb" stroke="#5dade2" stroke-width="1.5"/>
  <text x="50" y="366" fill="#888" font-size="10">0</text>
  <text x="108" y="366" fill="#888" font-size="10">1</text>
  <text x="166" y="366" fill="#888" font-size="10">2</text>
  <text x="224" y="366" fill="#888" font-size="10">3</text>
  <text x="282" y="366" fill="#888" font-size="10">4</text>

  <rect x="40"  y="372" width="52" height="24" rx="4" fill="#3498db" stroke="#2980b9" stroke-width="1.5"/>
  <text x="66"  y="389" text-anchor="middle" fill="#fff" font-size="11">55</text>
  <rect x="98"  y="372" width="52" height="24" rx="4" fill="#3498db" stroke="#2980b9" stroke-width="1.5"/>
  <text x="124" y="389" text-anchor="middle" fill="#fff" font-size="11">62</text>
  <rect x="156" y="372" width="52" height="24" rx="4" fill="#f39c12" stroke="#e67e22" stroke-width="2"/>
  <text x="182" y="389" text-anchor="middle" fill="#fff" font-size="11" font-weight="bold">78</text>
  <rect x="214" y="372" width="52" height="24" rx="4" fill="#2ecc71" stroke="#27ae60" stroke-width="1.5"/>
  <text x="240" y="389" text-anchor="middle" fill="#fff" font-size="11">88</text>
  <rect x="272" y="372" width="52" height="24" rx="4" fill="#2ecc71" stroke="#27ae60" stroke-width="1.5"/>
  <text x="298" y="389" text-anchor="middle" fill="#fff" font-size="11">95</text>

  <text x="340" y="386" fill="#f39c12" font-size="12" font-weight="bold">78 settled at index 2</text>

  <!-- Sorted result -->
  <text x="340" y="386" fill="#f39c12" font-size="12" font-weight="bold">78 settled at index 2</text>
  <text x="340" y="400" fill="#27ae60" font-size="11">no swaps needed, early exit!</text>

  <!-- Footer summary -->
  <rect x="30" y="418" width="860" height="52" rx="8" fill="#ecf0f1" stroke="#bdc3c7" stroke-width="1.5"/>
  <text x="460" y="438" text-anchor="middle" fill="#333" font-size="13" font-weight="bold">n-1-i means: "don't compare the last i elements, they're already in place"</text>
  <text x="460" y="458" text-anchor="middle" fill="#555" font-size="12">Without -i, bubble sort would re-compare settled elements every pass. Same result, but wasted work.</text>
</svg>
