<svg xmlns="http://www.w3.org/2000/svg" viewBox="0 0 920 420" font-family="'Segoe UI', Arial, sans-serif">
  <rect width="100%" height="100%" fill="white"/>

  <!-- Title -->
  <text x="460" y="30" text-anchor="middle" fill="#1a1a1a" font-size="26" font-weight="bold">insertion_sort() -- Code + Array State</text>
  <text x="460" y="50" text-anchor="middle" fill="#555" font-size="13">Save the key, shift larger elements right, place the key in its sorted position</text>

  <!-- ===== Code box (left) ===== -->
  <rect x="30" y="62" width="420" height="260" rx="8" fill="#1e1e2e" stroke="#45475a" stroke-width="1.5"/>

  <!-- Highlight bands -->
  <rect x="30" y="90"  width="420" height="18" fill="#cba6f720"/>
  <rect x="30" y="126" width="420" height="18" fill="#89b4fa20"/>
  <rect x="30" y="162" width="420" height="54" fill="#f38ba820"/>
  <rect x="30" y="234" width="420" height="18" fill="#a6e3a120"/>

  <!-- Code (x offsets: 50=L0, 66=L1, 82=L2, 98=L3) -->
  <text x="50" y="84"  fill="#cdd6f4" font-size="12" font-family="Consolas, monospace"><tspan fill="#cba6f7">void</tspan> <tspan fill="#89b4fa">insertion_sort</tspan>(vector&lt;int&gt;&amp; data) {</text>
  <text x="66" y="102" fill="#cdd6f4" font-size="12" font-family="Consolas, monospace"><tspan fill="#cba6f7">for</tspan> (i = 1; i &lt; n; ++i) {</text>
  <text x="82" y="120" fill="#6c7086" font-size="12" font-family="Consolas, monospace">// Step 1: save the current element</text>
  <text x="82" y="138" fill="#cdd6f4" font-size="12" font-family="Consolas, monospace"><tspan fill="#cba6f7">int</tspan> key = data[i];</text>
  <text x="82" y="156" fill="#cdd6f4" font-size="12" font-family="Consolas, monospace"><tspan fill="#cba6f7">int</tspan> j = i - 1;</text>
  <text x="82" y="174" fill="#6c7086" font-size="12" font-family="Consolas, monospace">// Step 2: shift elements &gt; key right</text>
  <text x="82" y="192" fill="#cdd6f4" font-size="12" font-family="Consolas, monospace"><tspan fill="#cba6f7">while</tspan> (j &gt;= 0 &amp;&amp; data[j] &gt; key) {</text>
  <text x="98" y="210" fill="#cdd6f4" font-size="12" font-family="Consolas, monospace">data[j+1] = data[j]; --j;</text>
  <text x="82" y="228" fill="#cdd6f4" font-size="12" font-family="Consolas, monospace">}</text>
  <text x="82" y="246" fill="#6c7086" font-size="12" font-family="Consolas, monospace">// Step 3: place key in the gap</text>
  <text x="82" y="264" fill="#a6e3a1" font-size="12" font-family="Consolas, monospace">data[j+1] = key;</text>
  <text x="66" y="282" fill="#cdd6f4" font-size="12" font-family="Consolas, monospace">}</text>
  <text x="50" y="300" fill="#cdd6f4" font-size="12" font-family="Consolas, monospace">}</text>

  <!-- Right panel: three steps visualized -->

  <!-- Step 1: Save key -->
  <rect x="470" y="62" width="420" height="72" rx="7" fill="#eaf4fb" stroke="#5dade2" stroke-width="1.5"/>
  <text x="680" y="80" text-anchor="middle" fill="#2980b9" font-size="13" font-weight="bold">Step 1: Save the key (line 4)</text>

  <rect x="490" y="90" width="50" height="28" rx="4" fill="#2ecc71" stroke="#27ae60" stroke-width="1.5"/>
  <text x="515" y="109" text-anchor="middle" fill="#fff" font-size="12">55</text>
  <rect x="548" y="90" width="50" height="28" rx="4" fill="#2ecc71" stroke="#27ae60" stroke-width="1.5"/>
  <text x="573" y="109" text-anchor="middle" fill="#fff" font-size="12">78</text>
  <rect x="606" y="90" width="50" height="28" rx="4" fill="#2ecc71" stroke="#27ae60" stroke-width="1.5"/>
  <text x="631" y="109" text-anchor="middle" fill="#fff" font-size="12">95</text>
  <rect x="664" y="90" width="50" height="28" rx="4" fill="#8e44ad" stroke="#6c3483" stroke-width="2.5"/>
  <text x="689" y="109" text-anchor="middle" fill="#fff" font-size="12" font-weight="bold">62</text>
  <text x="730" y="102" fill="#8e44ad" font-size="12" font-weight="bold">key = 62</text>
  <text x="730" y="118" fill="#8e44ad" font-size="11">i = 3</text>

  <!-- Step 2: Shift right -->
  <rect x="470" y="144" width="420" height="110" rx="7" fill="#fef9e7" stroke="#e67e22" stroke-width="1.5"/>
  <text x="680" y="162" text-anchor="middle" fill="#e67e22" font-size="13" font-weight="bold">Step 2: Shift elements &gt; key right (lines 7-8)</text>

  <!-- Shift 95 -->
  <text x="490" y="188" fill="#888" font-size="11">j=2:</text>
  <rect x="540" y="174" width="50" height="28" rx="4" fill="#2ecc71" stroke="#27ae60" stroke-width="1.5"/>
  <text x="565" y="193" text-anchor="middle" fill="#fff" font-size="12">55</text>
  <rect x="598" y="174" width="50" height="28" rx="4" fill="#2ecc71" stroke="#27ae60" stroke-width="1.5"/>
  <text x="623" y="193" text-anchor="middle" fill="#fff" font-size="12">78</text>
  <rect x="656" y="174" width="50" height="28" rx="4" fill="#ecf0f1" stroke="#bdc3c7" stroke-width="1.5" stroke-dasharray="4,3"/>
  <text x="681" y="193" text-anchor="middle" fill="#bbb" font-size="11">gap</text>
  <rect x="714" y="174" width="50" height="28" rx="4" fill="#e74c3c" stroke="#c0392b" stroke-width="2"/>
  <text x="739" y="193" text-anchor="middle" fill="#fff" font-size="12">95</text>
  <text x="775" y="190" fill="#e74c3c" font-size="11">95 &gt; 62</text>

  <!-- Shift 78 -->
  <text x="490" y="224" fill="#888" font-size="11">j=1:</text>
  <rect x="540" y="210" width="50" height="28" rx="4" fill="#2ecc71" stroke="#27ae60" stroke-width="1.5"/>
  <text x="565" y="229" text-anchor="middle" fill="#fff" font-size="12">55</text>
  <rect x="598" y="210" width="50" height="28" rx="4" fill="#ecf0f1" stroke="#bdc3c7" stroke-width="1.5" stroke-dasharray="4,3"/>
  <text x="623" y="229" text-anchor="middle" fill="#bbb" font-size="11">gap</text>
  <rect x="656" y="210" width="50" height="28" rx="4" fill="#e74c3c" stroke="#c0392b" stroke-width="2"/>
  <text x="681" y="229" text-anchor="middle" fill="#fff" font-size="12">78</text>
  <rect x="714" y="210" width="50" height="28" rx="4" fill="#3498db" stroke="#2980b9" stroke-width="1.5"/>
  <text x="739" y="229" text-anchor="middle" fill="#fff" font-size="12">95</text>
  <text x="775" y="226" fill="#e74c3c" font-size="11">78 &gt; 62</text>

  <!-- Step 3: Place key -->
  <rect x="470" y="264" width="420" height="72" rx="7" fill="#e8f5e9" stroke="#27ae60" stroke-width="1.5"/>
  <text x="680" y="282" text-anchor="middle" fill="#1b5e20" font-size="13" font-weight="bold">Step 3: Place key at data[j+1] (line 10)</text>

  <rect x="490" y="292" width="50" height="28" rx="4" fill="#2ecc71" stroke="#27ae60" stroke-width="1.5"/>
  <text x="515" y="311" text-anchor="middle" fill="#fff" font-size="12">55</text>
  <rect x="548" y="292" width="50" height="28" rx="4" fill="#8e44ad" stroke="#6c3483" stroke-width="2.5"/>
  <text x="573" y="311" text-anchor="middle" fill="#fff" font-size="12" font-weight="bold">62</text>
  <rect x="606" y="292" width="50" height="28" rx="4" fill="#2ecc71" stroke="#27ae60" stroke-width="1.5"/>
  <text x="631" y="311" text-anchor="middle" fill="#fff" font-size="12">78</text>
  <rect x="664" y="292" width="50" height="28" rx="4" fill="#2ecc71" stroke="#27ae60" stroke-width="1.5"/>
  <text x="689" y="311" text-anchor="middle" fill="#fff" font-size="12">95</text>
  <text x="730" y="304" fill="#27ae60" font-size="12" font-weight="bold">55 &lt; 62</text>
  <text x="730" y="320" fill="#27ae60" font-size="11">stop shifting!</text>

  <!-- Footer -->
  <rect x="30" y="348" width="860" height="60" rx="8" fill="#ecf0f1" stroke="#bdc3c7" stroke-width="1.5"/>
  <text x="460" y="368" text-anchor="middle" fill="#333" font-size="13" font-weight="bold">Why &gt; and not &gt;=? Stability.</text>
  <text x="460" y="386" text-anchor="middle" fill="#555" font-size="12">Using &gt; (not &gt;=) means equal elements are never shifted past each other -- their original order is preserved.</text>
  <text x="460" y="402" text-anchor="middle" fill="#555" font-size="12">Best case O(n): already sorted -- while loop body never runs, just n-1 comparisons.</text>
</svg>
