<svg xmlns="http://www.w3.org/2000/svg" viewBox="0 0 900 1120" font-family="'Segoe UI', Arial, sans-serif">
  <rect width="100%" height="100%" fill="white"/>

  <!-- Title -->
  <text x="450" y="32" text-anchor="middle" fill="#1a1a1a" font-size="24" font-weight="bold">Insertion Sort &#x2014; Complete Walkthrough</text>
  <text x="450" y="54" text-anchor="middle" fill="#777" font-size="13">Build a sorted region left-to-right. Each new element slides into its correct position.</text>

  <!-- Legend -->
  <rect x="580" y="70" width="300" height="106" rx="8" fill="#f8f9fa" stroke="#ddd" stroke-width="1"/>
  <rect x="596" y="86" width="16" height="12" rx="3" fill="#8e44ad"/>
  <text x="618" y="96" fill="#555" font-size="11">Key (being inserted)</text>
  <rect x="596" y="104" width="16" height="12" rx="3" fill="#e74c3c"/>
  <text x="618" y="114" fill="#555" font-size="11">Shifted right (larger than key)</text>
  <rect x="596" y="122" width="16" height="12" rx="3" fill="#2ecc71"/>
  <text x="618" y="132" fill="#555" font-size="11">Sorted region</text>
  <rect x="596" y="140" width="16" height="12" rx="3" fill="#bdc3c7"/>
  <text x="618" y="150" fill="#555" font-size="11">Unsorted (waiting)</text>
  <text x="770" y="96" fill="#555" font-size="11" font-weight="bold">O(n&#xB2;)</text>
  <text x="770" y="114" fill="#555" font-size="11" font-weight="bold">O(1) space</text>
  <text x="770" y="132" fill="#555" font-size="11" font-weight="bold">Stable</text>

  <!-- Input array [5, 2, 8, 1, 4] -->
  <text x="40" y="92" fill="#555" font-size="13" font-weight="bold">Input:</text>
  <rect x="110" y="76" width="52" height="32" rx="5" fill="#3498db" stroke="#2980b9" stroke-width="1.5"/>
  <text x="136" y="97" text-anchor="middle" fill="#fff" font-size="15" font-weight="bold">5</text>
  <rect x="170" y="76" width="52" height="32" rx="5" fill="#3498db" stroke="#2980b9" stroke-width="1.5"/>
  <text x="196" y="97" text-anchor="middle" fill="#fff" font-size="15" font-weight="bold">2</text>
  <rect x="230" y="76" width="52" height="32" rx="5" fill="#3498db" stroke="#2980b9" stroke-width="1.5"/>
  <text x="256" y="97" text-anchor="middle" fill="#fff" font-size="15" font-weight="bold">8</text>
  <rect x="290" y="76" width="52" height="32" rx="5" fill="#3498db" stroke="#2980b9" stroke-width="1.5"/>
  <text x="316" y="97" text-anchor="middle" fill="#fff" font-size="15" font-weight="bold">1</text>
  <rect x="350" y="76" width="52" height="32" rx="5" fill="#3498db" stroke="#2980b9" stroke-width="1.5"/>
  <text x="376" y="97" text-anchor="middle" fill="#fff" font-size="15" font-weight="bold">4</text>

  <!-- ===== i=1, key=2 — DETAILED STEP BY STEP ===== -->
  <rect x="20" y="190" width="860" height="350" rx="8" fill="#fff" stroke="#8e44ad" stroke-width="1.5"/>
  <text x="40" y="212" fill="#8e44ad" font-size="14" font-weight="bold">i = 1, key = 2</text>
  <text x="170" y="212" fill="#777" font-size="11">Save key first, then compare with sorted region right-to-left</text>

  <!-- Step 1: SAVE the key — extract it from the array -->
  <text x="40" y="240" fill="#8e44ad" font-size="12" font-weight="bold">Save key:</text>

  <!-- Key extracted above the array -->
  <rect x="211" y="228" width="46" height="28" rx="4" fill="#8e44ad" stroke="#6c3483" stroke-width="2"/>
  <text x="234" y="247" text-anchor="middle" fill="#fff" font-size="13" font-weight="bold">2</text>
  <text x="270" y="243" fill="#8e44ad" font-size="11" font-weight="bold">&#x2190; saved in temp variable</text>

  <!-- Array with empty slot where key was -->
  <rect x="155" y="262" width="46" height="28" rx="4" fill="#2ecc71"/>
  <text x="178" y="281" text-anchor="middle" fill="#fff" font-size="13">5</text>
  <rect x="211" y="262" width="46" height="28" rx="4" fill="#ecf0f1" stroke="#8e44ad" stroke-width="1.5" stroke-dasharray="4,3"/>
  <text x="234" y="281" text-anchor="middle" fill="#bbb" font-size="11" font-style="italic">empty</text>
  <rect x="267" y="262" width="46" height="28" rx="4" fill="#bdc3c7"/>
  <text x="290" y="281" text-anchor="middle" fill="#fff" font-size="13">8</text>
  <rect x="323" y="262" width="46" height="28" rx="4" fill="#bdc3c7"/>
  <text x="346" y="281" text-anchor="middle" fill="#fff" font-size="13">1</text>
  <rect x="379" y="262" width="46" height="28" rx="4" fill="#bdc3c7"/>
  <text x="402" y="281" text-anchor="middle" fill="#fff" font-size="13">4</text>
  <text x="440" y="277" fill="#777" font-size="10">key&#x2019;s slot is now free for shifting</text>

  <!-- Divider -->
  <line x1="40" y1="298" x2="860" y2="298" stroke="#e0d6eb" stroke-width="1"/>

  <!-- Step 2: j=0 -->
  <text x="40" y="316" fill="#8e44ad" font-size="12" font-weight="bold">j = 0</text>
  <text x="85" y="316" fill="#888" font-size="11">5 &gt; key(2)?</text>
  <text x="270" y="316" fill="#e74c3c" font-size="12" font-weight="bold">Yes &#x2192; shift 5 right into the gap</text>

  <!-- Key still in temp — full size, above the empty slot -->
  <rect x="211" y="308" width="46" height="28" rx="4" fill="#8e44ad" stroke="#6c3483" stroke-width="2"/>
  <text x="234" y="327" text-anchor="middle" fill="#fff" font-size="13" font-weight="bold">2</text>

  <!-- Before shift -->
  <rect x="155" y="340" width="46" height="28" rx="4" fill="#e74c3c"/>
  <text x="178" y="359" text-anchor="middle" fill="#fff" font-size="13" font-weight="bold">5</text>
  <rect x="211" y="340" width="46" height="28" rx="4" fill="#ecf0f1" stroke="#bdc3c7" stroke-width="1.5" stroke-dasharray="4,3"/>
  <text x="234" y="359" text-anchor="middle" fill="#bbb" font-size="11" font-style="italic">empty</text>
  <rect x="267" y="340" width="46" height="28" rx="4" fill="#bdc3c7"/>
  <text x="290" y="359" text-anchor="middle" fill="#fff" font-size="13">8</text>
  <rect x="323" y="340" width="46" height="28" rx="4" fill="#bdc3c7"/>
  <text x="346" y="359" text-anchor="middle" fill="#fff" font-size="13">1</text>
  <rect x="379" y="340" width="46" height="28" rx="4" fill="#bdc3c7"/>
  <text x="402" y="359" text-anchor="middle" fill="#fff" font-size="13">4</text>

  <text x="435" y="356" fill="#555" font-size="14">&#x2192;</text>

  <!-- After shift: gap moved left -->
  <rect x="460" y="340" width="44" height="28" rx="4" fill="#ecf0f1" stroke="#bdc3c7" stroke-width="1.5" stroke-dasharray="4,3"/>
  <text x="482" y="359" text-anchor="middle" fill="#bbb" font-size="10" font-style="italic">empty</text>
  <rect x="510" y="340" width="44" height="28" rx="4" fill="#e74c3c"/>
  <text x="532" y="359" text-anchor="middle" fill="#fff" font-size="13" font-weight="bold">5</text>
  <rect x="560" y="340" width="44" height="28" rx="4" fill="#bdc3c7"/>
  <text x="582" y="359" text-anchor="middle" fill="#fff" font-size="13">8</text>
  <rect x="610" y="340" width="44" height="28" rx="4" fill="#bdc3c7"/>
  <text x="632" y="359" text-anchor="middle" fill="#fff" font-size="13">1</text>
  <rect x="660" y="340" width="44" height="28" rx="4" fill="#bdc3c7"/>
  <text x="682" y="359" text-anchor="middle" fill="#fff" font-size="13">4</text>
  <text x="715" y="356" fill="#888" font-size="10">gap moved left</text>

  <!-- Divider -->
  <line x1="40" y1="378" x2="860" y2="378" stroke="#e0d6eb" stroke-width="1"/>

  <!-- Step 3: j=-1 -->
  <text x="40" y="392" fill="#8e44ad" font-size="12" font-weight="bold">j = -1</text>
  <text x="85" y="392" fill="#888" font-size="11">Stop! Place key in the gap</text>

  <!-- Key still in temp — full size, above the empty slot at x=155 -->
  <rect x="155" y="396" width="46" height="28" rx="4" fill="#8e44ad" stroke="#6c3483" stroke-width="2"/>
  <text x="178" y="415" text-anchor="middle" fill="#fff" font-size="13" font-weight="bold">2</text>

  <!-- Before: gap at index 0 -->
  <rect x="155" y="428" width="46" height="28" rx="4" fill="#ecf0f1" stroke="#8e44ad" stroke-width="1.5" stroke-dasharray="4,3"/>
  <text x="178" y="447" text-anchor="middle" fill="#bbb" font-size="10" font-style="italic">empty</text>
  <rect x="207" y="428" width="46" height="28" rx="4" fill="#2ecc71"/>
  <text x="230" y="447" text-anchor="middle" fill="#fff" font-size="13">5</text>
  <rect x="259" y="428" width="46" height="28" rx="4" fill="#bdc3c7"/>
  <text x="282" y="447" text-anchor="middle" fill="#fff" font-size="13">8</text>
  <rect x="311" y="428" width="46" height="28" rx="4" fill="#bdc3c7"/>
  <text x="334" y="447" text-anchor="middle" fill="#fff" font-size="13">1</text>
  <rect x="363" y="428" width="46" height="28" rx="4" fill="#bdc3c7"/>
  <text x="386" y="447" text-anchor="middle" fill="#fff" font-size="13">4</text>

  <text x="425" y="444" fill="#555" font-size="14">&#x2192;</text>

  <!-- After: key placed -->
  <rect x="455" y="428" width="46" height="28" rx="4" fill="#8e44ad" stroke="#6c3483" stroke-width="2"/>
  <text x="478" y="447" text-anchor="middle" fill="#fff" font-size="13" font-weight="bold">2</text>
  <rect x="507" y="428" width="46" height="28" rx="4" fill="#2ecc71"/>
  <text x="530" y="447" text-anchor="middle" fill="#fff" font-size="13">5</text>
  <rect x="559" y="428" width="46" height="28" rx="4" fill="#bdc3c7"/>
  <text x="582" y="447" text-anchor="middle" fill="#fff" font-size="13">8</text>
  <rect x="611" y="428" width="46" height="28" rx="4" fill="#bdc3c7"/>
  <text x="634" y="447" text-anchor="middle" fill="#fff" font-size="13">1</text>
  <rect x="663" y="428" width="46" height="28" rx="4" fill="#bdc3c7"/>
  <text x="686" y="447" text-anchor="middle" fill="#fff" font-size="13">4</text>
  <text x="720" y="444" fill="#8e44ad" font-size="10" font-weight="bold">key placed!</text>

  <!-- Divider -->
  <line x1="40" y1="468" x2="860" y2="468" stroke="#e0d6eb" stroke-width="1"/>

  <!-- End of i=1 -->
  <text x="40" y="496" fill="#555" font-size="12" font-weight="bold">End:</text>
  <rect x="155" y="482" width="46" height="28" rx="4" fill="#2ecc71" stroke="#1e8449" stroke-width="2"/>
  <text x="178" y="501" text-anchor="middle" fill="#fff" font-size="13" font-weight="bold">2</text>
  <rect x="207" y="482" width="46" height="28" rx="4" fill="#2ecc71"/>
  <text x="230" y="501" text-anchor="middle" fill="#fff" font-size="13">5</text>
  <line x1="257" y1="476" x2="257" y2="516" stroke="#8e44ad" stroke-width="2" stroke-dasharray="4,3"/>
  <text x="253" y="526" text-anchor="middle" fill="#8e44ad" font-size="8">sorted | unsorted</text>
  <rect x="263" y="482" width="46" height="28" rx="4" fill="#bdc3c7"/>
  <text x="286" y="501" text-anchor="middle" fill="#fff" font-size="13">8</text>
  <rect x="315" y="482" width="46" height="28" rx="4" fill="#bdc3c7"/>
  <text x="338" y="501" text-anchor="middle" fill="#fff" font-size="13">1</text>
  <rect x="367" y="482" width="46" height="28" rx="4" fill="#bdc3c7"/>
  <text x="390" y="501" text-anchor="middle" fill="#fff" font-size="13">4</text>
  <text x="430" y="496" fill="#27ae60" font-size="11" font-weight="bold">Sorted region: [2, 5] &#x2014; 1 shift</text>

  <!-- ===== i=2, key=8 — DETAILED (0 shifts, best case) ===== -->
  <rect x="20" y="550.0" width="860" height="254" rx="8" fill="#fff" stroke="#8e44ad" stroke-width="1.5"/>
  <text x="40" y="572.0" fill="#8e44ad" font-size="14" font-weight="bold">i = 2, key = 8</text>
  <text x="170" y="572.0" fill="#777" font-size="11">Save key, then compare with sorted region right-to-left</text>

  <!-- Save key — matches i=1 layout: key above, full array with empty slot below -->
  <text x="40" y="596.0" fill="#8e44ad" font-size="12" font-weight="bold">Save key:</text>

  <!-- Key extracted above the array -->
  <rect x="196" y="584.0" width="46" height="28" rx="4" fill="#8e44ad" stroke="#6c3483" stroke-width="2"/>
  <text x="219" y="603.0" text-anchor="middle" fill="#fff" font-size="13" font-weight="bold">8</text>
  <text x="255" y="599.0" fill="#8e44ad" font-size="11" font-weight="bold">&#x2190; saved in temp variable</text>

  <!-- Array with empty slot where key was -->
  <rect x="100" y="618.0" width="42" height="26" rx="4" fill="#2ecc71"/>
  <text x="121" y="636.0" text-anchor="middle" fill="#fff" font-size="12">2</text>
  <rect x="148" y="618.0" width="42" height="26" rx="4" fill="#2ecc71"/>
  <text x="169" y="636.0" text-anchor="middle" fill="#fff" font-size="12">5</text>
  <rect x="196" y="618.0" width="42" height="26" rx="4" fill="#ecf0f1" stroke="#8e44ad" stroke-width="1.5" stroke-dasharray="4,3"/>
  <text x="217" y="636.0" text-anchor="middle" fill="#bbb" font-size="10" font-style="italic">empty</text>
  <rect x="244" y="618.0" width="42" height="26" rx="4" fill="#bdc3c7"/>
  <text x="265" y="636.0" text-anchor="middle" fill="#fff" font-size="12">1</text>
  <rect x="292" y="618.0" width="42" height="26" rx="4" fill="#bdc3c7"/>
  <text x="313" y="636.0" text-anchor="middle" fill="#fff" font-size="12">4</text>

  <!-- Divider -->
  <line x1="40" y1="654" x2="860" y2="654" stroke="#e0d6eb" stroke-width="1"/>

  <!-- j=1: 5 > 8? No -->
  <text x="40" y="674.0" fill="#8e44ad" font-size="12" font-weight="bold">j = 1</text>
  <text x="85" y="674.0" fill="#888" font-size="11">5 &gt; key(8)?</text>
  <text x="255" y="674.0" fill="#f39c12" font-size="12" font-weight="bold">No &#x2192; stop! 8 is already in the right spot</text>

  <!-- Key still in temp — full size, above empty slot at x=196 -->
  <rect x="196" y="666.0" width="42" height="26" rx="4" fill="#8e44ad" stroke="#6c3483" stroke-width="2"/>
  <text x="217" y="684.0" text-anchor="middle" fill="#fff" font-size="12" font-weight="bold">8</text>

  <rect x="100" y="696.0" width="42" height="26" rx="4" fill="#2ecc71"/>
  <text x="121" y="714.0" text-anchor="middle" fill="#fff" font-size="12">2</text>
  <rect x="148" y="696.0" width="42" height="26" rx="4" fill="#f39c12" stroke="#e67e22" stroke-width="1.5"/>
  <text x="169" y="714.0" text-anchor="middle" fill="#fff" font-size="12" font-weight="bold">5</text>
  <rect x="196" y="696.0" width="42" height="26" rx="4" fill="#ecf0f1" stroke="#8e44ad" stroke-width="1.5" stroke-dasharray="4,3"/>
  <text x="217" y="714.0" text-anchor="middle" fill="#bbb" font-size="10" font-style="italic">empty</text>
  <rect x="244" y="696.0" width="42" height="26" rx="4" fill="#bdc3c7"/>
  <text x="265" y="714.0" text-anchor="middle" fill="#fff" font-size="12">1</text>
  <rect x="292" y="696.0" width="42" height="26" rx="4" fill="#bdc3c7"/>
  <text x="313" y="714.0" text-anchor="middle" fill="#fff" font-size="12">4</text>
  <text x="355" y="710.0" fill="#f39c12" font-size="10">5 is NOT larger than 8, so no shift needed</text>

  <!-- Divider -->
  <line x1="40" y1="734" x2="860" y2="734" stroke="#e0d6eb" stroke-width="1"/>

  <!-- Place key back -->
  <text x="40" y="754.0" fill="#8e44ad" font-size="12" font-weight="bold">Place key:</text>
  <text x="130" y="754.0" fill="#888" font-size="11">Key goes right back where it came from</text>

  <rect x="100" y="764.0" width="42" height="26" rx="4" fill="#2ecc71"/>
  <text x="121" y="782.0" text-anchor="middle" fill="#fff" font-size="12">2</text>
  <rect x="148" y="764.0" width="42" height="26" rx="4" fill="#2ecc71"/>
  <text x="169" y="782.0" text-anchor="middle" fill="#fff" font-size="12">5</text>
  <rect x="196" y="764.0" width="42" height="26" rx="4" fill="#8e44ad" stroke="#6c3483" stroke-width="2"/>
  <text x="217" y="782.0" text-anchor="middle" fill="#fff" font-size="12" font-weight="bold">8</text>
  <rect x="244" y="764.0" width="42" height="26" rx="4" fill="#bdc3c7"/>
  <text x="265" y="782.0" text-anchor="middle" fill="#fff" font-size="12">1</text>
  <rect x="292" y="764.0" width="42" height="26" rx="4" fill="#bdc3c7"/>
  <text x="313" y="782.0" text-anchor="middle" fill="#fff" font-size="12">4</text>
  <text x="355" y="780.0" fill="#27ae60" font-size="11" font-weight="bold">0 shifts &#x2014; best case for this element!</text>

  <!-- ===== i=3, key=1 — COMPACT ===== -->
  <rect x="20" y="840.0" width="860" height="70" rx="8" fill="#fff" stroke="#8e44ad" stroke-width="1.5"/>
  <text x="40" y="860" fill="#8e44ad" font-size="14" font-weight="bold">i = 3, key = 1</text>
  <text x="170" y="860" fill="#e74c3c" font-size="11">8&gt;1  5&gt;1  2&gt;1 &#x2192; 3 shifts</text>
  <text x="400" y="860" fill="#8e44ad" font-size="11" font-weight="bold">Gap travels index 3 &#x2192; 0</text>

  <text x="40" y="866.0" fill="#888" font-size="11">Start:</text>
  <rect x="100" y="850.0" width="42" height="26" rx="4" fill="#2ecc71"/>
  <text x="121" y="868.0" text-anchor="middle" fill="#fff" font-size="12">2</text>
  <rect x="148" y="850.0" width="42" height="26" rx="4" fill="#2ecc71"/>
  <text x="169" y="868.0" text-anchor="middle" fill="#fff" font-size="12">5</text>
  <rect x="196" y="850.0" width="42" height="26" rx="4" fill="#2ecc71"/>
  <text x="217" y="868.0" text-anchor="middle" fill="#fff" font-size="12">8</text>
  <rect x="244" y="850.0" width="42" height="26" rx="4" fill="#8e44ad"/>
  <text x="265" y="868.0" text-anchor="middle" fill="#fff" font-size="12" font-weight="bold">1</text>
  <rect x="292" y="850.0" width="42" height="26" rx="4" fill="#bdc3c7"/>
  <text x="313" y="868.0" text-anchor="middle" fill="#fff" font-size="12">4</text>
  <text x="355" y="866.0" fill="#555" font-size="14">&#x2192;</text>
  <rect x="385" y="850.0" width="42" height="26" rx="4" fill="#2ecc71" stroke="#1e8449" stroke-width="2"/>
  <text x="406" y="868.0" text-anchor="middle" fill="#fff" font-size="12" font-weight="bold">1</text>
  <rect x="433" y="850.0" width="42" height="26" rx="4" fill="#2ecc71"/>
  <text x="454" y="868.0" text-anchor="middle" fill="#fff" font-size="12">2</text>
  <rect x="481" y="850.0" width="42" height="26" rx="4" fill="#2ecc71"/>
  <text x="502" y="868.0" text-anchor="middle" fill="#fff" font-size="12">5</text>
  <rect x="529" y="850.0" width="42" height="26" rx="4" fill="#2ecc71"/>
  <text x="550" y="868.0" text-anchor="middle" fill="#fff" font-size="12">8</text>
  <rect x="577" y="850.0" width="42" height="26" rx="4" fill="#bdc3c7"/>
  <text x="598" y="868.0" text-anchor="middle" fill="#fff" font-size="12">4</text>
  <text x="632" y="866.0" fill="#e74c3c" font-size="11" font-weight="bold">3 shifts (worst!)</text>

  <!-- ===== i=4, key=4 — COMPACT ===== -->
  <rect x="20" y="920" width="860" height="70" rx="8" fill="#fff" stroke="#27ae60" stroke-width="2"/>
  <text x="40" y="942" fill="#8e44ad" font-size="14" font-weight="bold">i = 4, key = 4</text>
  <text x="170" y="942" fill="#e74c3c" font-size="11">8&gt;4  5&gt;4 &#x2192; 2 shifts</text>
  <text x="330" y="942" fill="#27ae60" font-size="11">2&lt;4 stop!</text>
  <text x="420" y="942" fill="#8e44ad" font-size="11" font-weight="bold">Place at index 2</text>

  <text x="40" y="976" fill="#555" font-size="11" font-weight="bold">Final:</text>
  <rect x="100" y="960" width="42" height="26" rx="4" fill="#27ae60" stroke="#1e8449" stroke-width="2"/>
  <text x="121" y="978" text-anchor="middle" fill="#fff" font-size="12" font-weight="bold">1</text>
  <rect x="148" y="960" width="42" height="26" rx="4" fill="#27ae60" stroke="#1e8449" stroke-width="2"/>
  <text x="169" y="978" text-anchor="middle" fill="#fff" font-size="12" font-weight="bold">2</text>
  <rect x="196" y="960" width="42" height="26" rx="4" fill="#27ae60" stroke="#1e8449" stroke-width="2"/>
  <text x="217" y="978" text-anchor="middle" fill="#fff" font-size="12" font-weight="bold">4</text>
  <rect x="244" y="960" width="42" height="26" rx="4" fill="#27ae60" stroke="#1e8449" stroke-width="2"/>
  <text x="265" y="978" text-anchor="middle" fill="#fff" font-size="12" font-weight="bold">5</text>
  <rect x="292" y="960" width="42" height="26" rx="4" fill="#27ae60" stroke="#1e8449" stroke-width="2"/>
  <text x="313" y="978" text-anchor="middle" fill="#fff" font-size="12" font-weight="bold">8</text>
  <text x="355" y="976" fill="#27ae60" font-size="11" font-weight="bold">&#x2190; sorted! (2 shifts)</text>

  <!-- ===== KEY TAKEAWAYS ===== -->
  <rect x="20" y="1010" width="860" height="106" rx="10" fill="#f4ecf7" stroke="#8e44ad" stroke-width="1.5"/>
  <text x="450" y="1034" text-anchor="middle" fill="#4a235a" font-size="15" font-weight="bold">Key Takeaways</text>

  <text x="50" y="1058" fill="#2c3e50" font-size="12">&#x2022; Save the key, shift larger elements right &#x2014; the gap travels left until the key finds its spot</text>
  <text x="50" y="1078" fill="#2c3e50" font-size="12">&#x2022; Worst case (reverse sorted): gap travels all the way to index 0 every time = <tspan font-weight="bold">O(n&#xB2;)</tspan></text>
  <text x="50" y="1098" fill="#2c3e50" font-size="12">&#x2022; Best case (already sorted): zero shifts per element = <tspan font-weight="bold">O(n)</tspan> &#x2014; fastest quadratic sort on sorted data</text>
</svg>
